# xmcd
#
# Track frame offsets: 
#        150
#        16677
#        34810
#        52097
#        70500
#        85787
#        102720
#        121310
#        139245
#        161700
#        185440
#
# Disc length: 2736 seconds
#
# Revision: 2
# Processed by: cddbd v1.5.1PL0 Copyright (c) Steve Scherf et al.
# Submitted via: ExactAudioCopy v0.95a5
#
DISCID=920aae0b
DTITLE=Charlie Major - Lucky Man
DYEAR=1995
DGENRE=Country
TTITLE0=Someday I'm Gonna Ride In A Cadillac
TTITLE1=Waiting On You
TTITLE2=Runaway Train
TTITLE3=This Crazy Heart Of Mine
TTITLE4=(I Do It) For The Money
TTITLE5=I Can See Forever In Your Eyes
TTITLE6=Tell Me Something I Don't Know
TTITLE7=It's Lonely I Can't Stand
TTITLE8=Solid As A Rock
TTITLE9=Lucky Man
TTITLE10=Remember The Alamo
EXTD=
EXTT0=
EXTT1=
EXTT2=
EXTT3=
EXTT4=
EXTT5=
EXTT6=
EXTT7=
EXTT8=
EXTT9=
EXTT10=
PLAYORDER=
